# xmcd
#
# Track frame offsets:
# 150
# 10067
# 23680
# 32745
# 42970
# 53997
# 64982
# 74980
# 87775
# 99560
# 109905
# 119597
# 132760
# 142247
# 154632
# 167700
# 177672
# 189352
# 200047
# 210677
# 226347
# 241470
# 255195
# 265352
#
# Disc length: 3719 seconds
#
#
# Revision: 3
# Processed by: cddbd v1.5.1PL2 Copyright (c) Steve Scherf et al.
# Submitted via: FreeRIP 2.942 
#
DISCID=630e8518
DTITLE=Patsy Cline - The Patsy Cline Story
DYEAR=1973
DGENRE=Country
TTITLE0=Heartaches
TTITLE1=She's Got You
TTITLE2=Walkin' After Midnight
TTITLE3=Strange
TTITLE4=Leavin' On Your Mind
TTITLE5=South Of The Border (Down Mexico Way)
TTITLE6=Foolin' Around
TTITLE7=I Fall To Pieces
TTITLE8=A Poor Man's Roses (Or A Rich Man's Gold)
TTITLE9=Tra Le La Le La Triangle
TTITLE10=True Love
TTITLE11=Imagine That
TTITLE12=Back In Baby's Arms
TTITLE13=Crazy
TTITLE14=You're Stronger Than Me
TTITLE15=Seven Lonely Days
TTITLE16=Sweet Dreams (Of You)
TTITLE17=Your Cheatin' Heart
TTITLE18=San Antonio Rose
TTITLE19=Why Can't He Be You
TTITLE20=The Wayward Wind
TTITLE21=So Wrong
TTITLE22=I Love You So Much It Hurts
TTITLE23=You Belong To Me
EXTD=
EXTT0=
EXTT1=
EXTT2=
EXTT3=
EXTT4=
EXTT5=
EXTT6=
EXTT7=
EXTT8=(Or a Rich Man's Gold)
EXTT9=
EXTT10=
EXTT11=
EXTT12=
EXTT13=
EXTT14=
EXTT15=
EXTT16=(Of You)
EXTT17=
EXTT18=
EXTT19=
EXTT20=
EXTT21=
EXTT22=
EXTT23=
PLAYORDER=
